<?xml version="1.0" encoding="utf-8"?>
<!-- Generator: Adobe Illustrator 21.0.0, SVG Export Plug-In . SVG Version: 6.00 Build 0)  -->
<svg version="1.1" id="Layer_1" xmlns="http://www.w3.org/2000/svg" xmlns:xlink="http://www.w3.org/1999/xlink" x="0px" y="0px"
	 viewBox="0 0 180 89.8" style="enable-background:new 0 0 180 89.8;" xml:space="preserve">
<style type="text/css">
	.st0{fill:#4C1167;}
	.st1{opacity:0.5;}
</style>
<g>
	<g>
		<circle class="st0" cx="36.4" cy="7.3" r="7.3"/>
		<g>
			<polygon class="st0" points="15.7,72.9 17.1,72.9 21.5,83.2 26,72.9 27.5,72.9 21.7,86.2 21.4,86.2 			"/>
			<path class="st0" d="M37.1,76.3v9.9h-1.3v-1.7c-0.5,0.6-1.1,1.1-1.8,1.5c-0.7,0.3-1.4,0.5-2.2,0.5c-1.4,0-2.6-0.5-3.6-1.5
				c-1-1-1.5-2.2-1.5-3.7c0-1.4,0.5-2.6,1.5-3.7c1-1,2.2-1.5,3.6-1.5c0.8,0,1.5,0.2,2.2,0.5c0.7,0.3,1.2,0.9,1.7,1.6v-1.8H37.1z
				 M32,77.3c-0.7,0-1.4,0.2-2,0.5c-0.6,0.3-1.1,0.8-1.4,1.5c-0.4,0.6-0.5,1.3-0.5,2c0,0.7,0.2,1.4,0.5,2c0.4,0.6,0.8,1.1,1.4,1.5
				c0.6,0.4,1.2,0.5,1.9,0.5c0.7,0,1.4-0.2,2-0.5c0.6-0.4,1.1-0.8,1.4-1.4c0.3-0.6,0.5-1.3,0.5-2c0-1.1-0.4-2.1-1.1-2.9
				C34,77.7,33.1,77.3,32,77.3"/>
			<rect x="39.3" y="72.5" class="st0" width="1.3" height="13.7"/>
			<rect x="42.8" y="72.5" class="st0" width="1.3" height="13.7"/>
			<path class="st0" d="M54.9,82.9l1.1,0.6c-0.4,0.7-0.8,1.2-1.2,1.7c-0.5,0.4-1,0.7-1.6,1c-0.6,0.2-1.2,0.3-2,0.3
				c-1.6,0-2.9-0.5-3.8-1.6c-0.9-1.1-1.4-2.3-1.4-3.6c0-1.3,0.4-2.4,1.2-3.4c1-1.2,2.3-1.9,3.9-1.9c1.7,0,3,0.6,4,1.9
				c0.7,0.9,1.1,2,1.1,3.4h-8.9c0,1.1,0.4,2.1,1.1,2.8c0.7,0.7,1.6,1.1,2.6,1.1c0.5,0,1-0.1,1.5-0.3c0.5-0.2,0.9-0.4,1.2-0.7
				C54.2,84.1,54.6,83.6,54.9,82.9 M54.9,80.3c-0.2-0.7-0.4-1.2-0.7-1.6c-0.3-0.4-0.8-0.7-1.3-1c-0.5-0.2-1.1-0.4-1.7-0.4
				c-1,0-1.8,0.3-2.5,0.9c-0.5,0.5-0.9,1.1-1.2,2H54.9z"/>
			<polygon class="st0" points="56.9,76.3 58.3,76.3 61.7,84 65,76.3 66.3,76.3 60.4,89.8 59.1,89.8 61,85.5 			"/>
			<polygon class="st0" points="73.3,72.9 74.6,72.9 74.6,78.5 81.5,78.5 81.5,72.9 82.8,72.9 82.8,86.2 81.5,86.2 81.5,79.8 
				74.6,79.8 74.6,86.2 73.3,86.2 			"/>
			<path class="st0" d="M93.7,82.9l1.1,0.6c-0.4,0.7-0.8,1.2-1.2,1.7c-0.5,0.4-1,0.7-1.6,1c-0.6,0.2-1.2,0.3-2,0.3
				c-1.6,0-2.9-0.5-3.8-1.6c-0.9-1.1-1.4-2.3-1.4-3.6c0-1.3,0.4-2.4,1.2-3.4c1-1.2,2.3-1.9,3.9-1.9c1.7,0,3,0.6,4,1.9
				c0.7,0.9,1.1,2,1.1,3.4h-8.9c0,1.1,0.4,2.1,1.1,2.8c0.7,0.7,1.6,1.1,2.6,1.1c0.5,0,1-0.1,1.5-0.3c0.5-0.2,0.9-0.4,1.2-0.7
				C92.9,84.1,93.3,83.6,93.7,82.9 M93.7,80.3c-0.2-0.7-0.4-1.2-0.7-1.6c-0.3-0.4-0.8-0.7-1.3-1c-0.5-0.2-1.1-0.4-1.7-0.4
				c-1,0-1.8,0.3-2.5,0.9c-0.5,0.5-0.9,1.1-1.2,2H93.7z"/>
			<path class="st0" d="M107.3,76.3v9.9H106v-1.7c-0.5,0.6-1.1,1.1-1.8,1.5c-0.7,0.3-1.4,0.5-2.2,0.5c-1.4,0-2.6-0.5-3.6-1.5
				c-1-1-1.5-2.2-1.5-3.7c0-1.4,0.5-2.6,1.5-3.7c1-1,2.2-1.5,3.6-1.5c0.8,0,1.5,0.2,2.2,0.5c0.7,0.3,1.2,0.9,1.7,1.6v-1.8H107.3z
				 M102.2,77.3c-0.7,0-1.4,0.2-2,0.5c-0.6,0.3-1.1,0.8-1.4,1.5c-0.4,0.6-0.5,1.3-0.5,2c0,0.7,0.2,1.4,0.5,2
				c0.4,0.6,0.8,1.1,1.4,1.5c0.6,0.4,1.2,0.5,1.9,0.5c0.7,0,1.4-0.2,2-0.5c0.6-0.4,1.1-0.8,1.4-1.4c0.3-0.6,0.5-1.3,0.5-2
				c0-1.1-0.4-2.1-1.1-2.9C104.2,77.7,103.3,77.3,102.2,77.3"/>
			<rect x="109.5" y="72.5" class="st0" width="1.3" height="13.7"/>
			<polygon class="st0" points="114.6,72.7 115.9,72.7 115.9,76.3 117.9,76.3 117.9,77.4 115.9,77.4 115.9,86.2 114.6,86.2 
				114.6,77.4 112.9,77.4 112.9,76.3 114.6,76.3 			"/>
			<path class="st0" d="M120,72.5h1.3v5.6c0.5-0.7,1.1-1.2,1.7-1.5c0.6-0.3,1.3-0.5,2-0.5c0.7,0,1.4,0.2,2,0.6
				c0.6,0.4,1,0.9,1.3,1.5c0.3,0.6,0.4,1.6,0.4,3v5.1h-1.3v-4.7c0-1.1,0-1.9-0.1-2.3c-0.2-0.7-0.4-1.1-0.9-1.5
				c-0.4-0.3-1-0.5-1.6-0.5c-0.8,0-1.5,0.3-2.1,0.8c-0.6,0.5-1,1.1-1.2,1.9c-0.1,0.5-0.2,1.4-0.2,2.7v3.6H120V72.5z"/>
			<path class="st0" d="M136.7,72.9h2.7c1.5,0,2.6,0.1,3.1,0.2c0.8,0.2,1.4,0.6,1.9,1.2c0.5,0.6,0.7,1.3,0.7,2.2
				c0,0.9-0.2,1.6-0.7,2.2c-0.5,0.6-1.1,1-2,1.2c-0.6,0.1-1.7,0.2-3.4,0.2h-1v6.2h-1.3V72.9z M138,74.2v4.5l2.3,0
				c0.9,0,1.6-0.1,2-0.2c0.4-0.2,0.8-0.4,1-0.8c0.2-0.4,0.4-0.8,0.4-1.2c0-0.4-0.1-0.9-0.4-1.2c-0.2-0.4-0.6-0.6-1-0.8
				c-0.4-0.2-1-0.2-1.9-0.2H138z"/>
			<rect x="147.1" y="72.5" class="st0" width="1.3" height="13.7"/>
			<path class="st0" d="M160.9,76.3v9.9h-1.3v-1.7c-0.5,0.6-1.1,1.1-1.8,1.5c-0.7,0.3-1.4,0.5-2.2,0.5c-1.4,0-2.6-0.5-3.6-1.5
				c-1-1-1.5-2.2-1.5-3.7c0-1.4,0.5-2.6,1.5-3.7c1-1,2.2-1.5,3.6-1.5c0.8,0,1.5,0.2,2.2,0.5c0.7,0.3,1.2,0.9,1.7,1.6v-1.8H160.9z
				 M155.9,77.3c-0.7,0-1.4,0.2-2,0.5c-0.6,0.3-1.1,0.8-1.4,1.5c-0.4,0.6-0.5,1.3-0.5,2c0,0.7,0.2,1.4,0.5,2
				c0.4,0.6,0.8,1.1,1.4,1.5c0.6,0.4,1.2,0.5,1.9,0.5c0.7,0,1.4-0.2,2-0.5c0.6-0.4,1.1-0.8,1.4-1.4c0.3-0.6,0.5-1.3,0.5-2
				c0-1.1-0.4-2.1-1.1-2.9C157.9,77.7,157,77.3,155.9,77.3"/>
			<path class="st0" d="M163.3,76.3h1.3v1.8c0.5-0.7,1.1-1.2,1.7-1.5c0.6-0.3,1.3-0.5,2-0.5c0.7,0,1.4,0.2,2,0.6
				c0.6,0.4,1,0.9,1.3,1.5c0.3,0.6,0.4,1.6,0.4,3v5.1h-1.3v-4.7c0-1.1,0-1.9-0.1-2.3c-0.1-0.7-0.4-1.1-0.8-1.5
				c-0.4-0.3-1-0.5-1.6-0.5c-0.8,0-1.5,0.3-2.1,0.8c-0.6,0.5-1,1.1-1.2,1.9c-0.1,0.5-0.2,1.4-0.2,2.7v3.6h-1.3V76.3z"/>
		</g>
		<g>
			<path class="st0" d="M117.2,28.1V3.8c0-0.9-0.8-1.6-1.6-1.6h-5.7c-1,0-1.6,0.8-1.6,1.6V27C108.2,27,113.1,27.4,117.2,28.1z"/>
			<path class="st0" d="M108.2,38v23.2c0,0.9,0.7,1.6,1.6,1.6h5.7c0.9,0,1.6-0.7,1.6-1.6V39.1C112.9,38.4,108.2,38,108.2,38z"/>
		</g>
		<g>
			<path class="st0" d="M134.5,43.1v18.1c0,0.9,0.7,1.6,1.6,1.6h5.6c0.9,0,1.6-0.8,1.6-1.6v-15C143.4,46.2,140.5,44.7,134.5,43.1z"
				/>
		</g>
		<g class="st1">
			<path class="st0" d="M180,62.9c0,0-0.6-0.4-1.7-1.2c-1.1-0.8-2.7-1.9-4.7-3.3c-1-0.7-2.1-1.5-3.4-2.2c-1.3-0.8-2.6-1.6-4.1-2.5
				c-1.5-0.8-3.1-1.7-4.8-2.6c-1.7-0.8-3.5-1.8-5.4-2.7c-1-0.4-1.9-0.9-2.9-1.3c-0.5-0.2-1-0.5-1.5-0.7c-0.5-0.2-1-0.4-1.6-0.6
				c-1-0.4-2.1-0.9-3.2-1.3c-1.1-0.4-2.2-0.8-3.3-1.2c-2.2-0.9-4.6-1.6-7-2.3c-1.2-0.4-2.4-0.7-3.6-1c-1.2-0.4-2.5-0.7-3.7-1
				c-5-1.3-10.3-2.1-15.7-2.9c-5.4-0.7-10.9-1-16.5-1c-2.7,0.1-5.7,0-8.3,0.3c-1.4,0.1-2.7,0.1-4.1,0.3c-1.4,0.1-2.7,0.3-4.1,0.4
				c-5.4,0.8-10.7,1.5-15.7,2.9c-5,1.3-9.9,2.7-14.3,4.4c-1.1,0.4-2.2,0.8-3.3,1.2c-1.1,0.4-2.1,0.9-3.2,1.3c-0.5,0.2-1,0.4-1.6,0.6
				c-0.5,0.2-1,0.5-1.5,0.7c-1,0.5-2,0.9-2.9,1.3c-1.9,0.9-3.7,1.9-5.4,2.7c-1.7,0.9-3.3,1.8-4.8,2.6c-1.5,0.9-2.8,1.7-4.1,2.5
				c-1.3,0.8-2.4,1.5-3.4,2.2c-2.1,1.3-3.6,2.5-4.7,3.2c-1.1,0.8-1.7,1.2-1.7,1.2s0.5-0.5,1.5-1.4c1-0.9,2.3-2.3,4.2-3.9
				c1-0.8,2-1.7,3.1-2.7c1.2-0.9,2.5-1.9,3.8-3c1.4-1,2.9-2.1,4.5-3.2c1.7-1,3.4-2.2,5.2-3.3c3.7-2.1,7.8-4.4,12.4-6.3
				c2.2-1,4.6-1.9,7.1-2.9c1.2-0.5,2.5-0.9,3.7-1.3c1.3-0.4,2.5-0.8,3.8-1.2c1.3-0.4,2.6-0.7,3.9-1.1c1.3-0.3,2.7-0.6,4-0.9
				c1.4-0.3,2.7-0.6,4.1-0.8c1.4-0.2,2.8-0.5,4.2-0.7c1.4-0.2,2.8-0.4,4.3-0.5c1.4-0.2,2.9-0.2,4.3-0.4c3-0.3,5.6-0.2,8.6-0.3
				c5.8,0.1,11.6,0.5,17.2,1.2c1.4,0.2,2.8,0.4,4.2,0.7c1.4,0.2,2.8,0.5,4.1,0.8c1.4,0.3,2.7,0.6,4,0.9c1.3,0.4,2.6,0.7,3.9,1.1
				c1.3,0.3,2.6,0.8,3.8,1.2c1.3,0.4,2.5,0.8,3.7,1.3c2.4,1,4.8,1.8,7.1,2.9c4.6,1.9,8.7,4.2,12.4,6.3c1.8,1.1,3.6,2.2,5.2,3.3
				c1.6,1.1,3.1,2.2,4.5,3.2c1.4,1.1,2.7,2.1,3.8,3c1.2,0.9,2.2,1.9,3.2,2.7c1.9,1.6,3.3,3,4.2,3.9C179.5,62.4,180,62.9,180,62.9z"
				/>
		</g>
		<g>
			<path class="st0" d="M86.1,27V3.8c0-0.9-0.7-1.6-1.6-1.6h-5.7c-0.9,0-1.6,0.8-1.6,1.6v24.3C80.9,27.4,86.1,27,86.1,27z"/>
			<path class="st0" d="M77.1,39.1v22.2c0,0.9,0.7,1.6,1.6,1.6h5.7c1,0,1.6-0.8,1.6-1.6V38C86.1,38,81.3,38.2,77.1,39.1z"/>
		</g>
		<g>
			<path class="st0" d="M53.9,34.2L67.5,4.4C68,3.3,67.3,2.2,66,2.2h-6.2c-0.8,0-1.3,0.5-1.5,1L42.4,39C42.4,39,47.3,36.6,53.9,34.2
				z"/>
			<path class="st0" d="M1,13.6c15.7,7.6,24.9,20.8,30,31.6c0.8-0.5,1.6-1,2.5-1.5c1-0.5,1.9-1.1,2.9-1.6c0.7-0.4,1.5-0.8,2.2-1.2
				c-3.3-7.8-13.3-26.4-36-36.6C1.4,3.7,0,4.6,0,5.9V12C0,12.7,0.4,13.3,1,13.6z"/>
			<path class="st0" d="M34.5,53.7c1.9,5.4,2.5,9.1,2.5,9.1c0.3,0.5,0.9,1,1.5,1h0.9c0.7,0,1.2-0.4,1.5-1L48,47.2
				C37.7,51.6,34.5,53.7,34.5,53.7z"/>
		</g>
	</g>
	<path class="st0" d="M155.3,40.8c11.1,0.3,20.1-8.7,20.1-19.5c-0.1-10.5-8.8-19.2-19.4-19.2h-19.8c-1,0-1.6,0.8-1.6,1.6v28.4
		C134.5,32.2,143.2,34.3,155.3,40.8z M143.4,10.8h12c6,0,11,4.5,11,10.4c0,6.2-5,11.1-11,11.1h-12V10.8z"/>
</g>
</svg>
